<svg width="44" height="53" viewBox="0 0 44 53" fill="none" xmlns="http://www.w3.org/2000/svg">
<path d="M21.6006 0C17.114 0 12.8112 1.78229 9.63867 4.95478C6.46618 8.12727 4.68389 12.4301 4.68389 16.9167V25.4427C4.68424 25.8176 4.59737 26.1874 4.43014 26.5229L0.280727 34.8193C0.0780323 35.2247 -0.0176782 35.6751 0.00268561 36.1278C0.0230495 36.5805 0.158811 37.0205 0.397077 37.406C0.635343 37.7915 0.968202 38.1097 1.36404 38.3303C1.75988 38.5509 2.20555 38.6667 2.65873 38.6667H40.5424C40.9956 38.6667 41.4412 38.5509 41.8371 38.3303C42.2329 38.1097 42.5658 37.7915 42.804 37.406C43.0423 37.0205 43.1781 36.5805 43.1984 36.1278C43.2188 35.6751 43.1231 35.2247 42.9204 34.8193L38.7734 26.5229C38.6053 26.1876 38.5176 25.8177 38.5172 25.4427V16.9167C38.5172 12.4301 36.7349 8.12727 33.5625 4.95478C30.39 1.78229 26.0871 0 21.6006 0ZM21.6006 45.9167C20.1007 45.9174 18.6374 45.453 17.4125 44.5874C16.1876 43.7217 15.2614 42.4975 14.7614 41.0833H28.4397C27.9398 42.4975 27.0135 43.7217 25.7886 44.5874C24.5637 45.453 23.1005 45.9174 21.6006 45.9167Z" fill="#D9D9D9"/>
</svg>
