<svg width="35" height="28" viewBox="0 0 35 28" fill="none" xmlns="http://www.w3.org/2000/svg">
<path d="M12.9445 20.7112C9.3267 20.7112 6.26515 19.7086 3.75989 17.7033C1.25462 15.6981 0.0013287 13.2488 1.05369e-06 10.3556C-0.00132659 7.46242 1.25197 5.01318 3.75989 3.00791C6.26781 1.00264 9.32935 0 12.9445 0C16.5597 0 19.6219 1.00264 22.1312 3.00791C24.6404 5.01318 25.893 7.46242 25.889 10.3556C25.889 11.5239 25.6567 12.6259 25.192 13.6615C24.7274 14.697 24.0967 15.6131 23.3001 16.4097L34.4523 25.3314C34.8174 25.6235 35 25.9953 35 26.4467C35 26.8981 34.8174 27.2698 34.4523 27.5619C34.0872 27.854 33.6226 28 33.0583 28C32.4941 28 32.0294 27.854 31.6643 27.5619L20.5121 18.6401C19.5164 19.2774 18.3713 19.7819 17.0768 20.1536C15.7824 20.5254 14.4049 20.7112 12.9445 20.7112ZM12.9445 17.5249C15.4339 17.5249 17.5501 16.8281 19.2933 15.4347C21.0365 14.0412 21.9074 12.3481 21.9061 10.3556C21.9048 8.36309 21.0339 6.67061 19.2933 5.27818C17.5528 3.88575 15.4365 3.18847 12.9445 3.18634C10.4525 3.18422 8.33694 3.8815 6.59773 5.27818C4.85851 6.67486 3.98691 8.36734 3.98293 10.3556C3.97895 12.3439 4.85055 14.0369 6.59773 15.4347C8.3449 16.8324 10.4605 17.5291 12.9445 17.5249Z" fill="#6A6A6A"/>
</svg>
